<svg xmlns="http://www.w3.org/2000/svg" xmlns:xlink="http://www.w3.org/1999/xlink" width="73.628" height="73.628" viewBox="0 0 73.628 73.628">
  <defs>
    <clipPath id="clip-path">
      <rect id="Rectangle_824" data-name="Rectangle 824" width="73.628" height="73.628" transform="translate(0 0)" fill="#2f3d57"/>
    </clipPath>
  </defs>
  <g id="Group_1240" data-name="Group 1240" transform="translate(0 0)">
    <g id="Group_1239" data-name="Group 1239" transform="translate(0 0)" clip-path="url(#clip-path)">
      <path id="Path_42402" data-name="Path 42402" d="M738.962,331.745c-3.966,2.726-14.51,6.866-19.336,15.274a27.365,27.365,0,0,1,2.339,2.958,26.8,26.8,0,0,1,4.064,9.583c.15-.485.3-.969.473-1.45l.337-1.022c.112-.339.25-.671.373-1.008l.76-2.014.842-1.978c.146-.328.273-.662.432-.983l.467-.967a64.163,64.163,0,0,1,4.194-7.469,64.014,64.014,0,0,0-3.769,7.658l-.41.983c-.141.328-.248.667-.375,1l-.726,2-.644,2.03c-.1.339-.221.674-.312,1.015l-.28,1.026c-.355,1.233-.639,2.483-.922,3.73v0a36.679,36.679,0,0,1,.3,3.718v0a48.409,48.409,0,0,1-.453,7.924c22.445-14.112,11.622-31.068,12.646-42.014" transform="translate(-682.182 -314.483)" fill="#2f3d57"/>
      <path id="Path_42403" data-name="Path 42403" d="M296.62,408.632c-.321-7.228-2.676-12.3-5.935-16.157-.271-.323-.551-.637-.835-.942s-.562-.592-.851-.878c-6.106-6.019-14.355-8.832-18.84-13.292-1.871,13.153-8.6,39.408,23.706,41.675-.2-.155-.4-.312-.6-.471-.639-.512-1.258-1.042-1.866-1.584q-1.819-1.628-3.47-3.416a53.593,53.593,0,0,1-13.279-25.344,54.748,54.748,0,0,0,3.343,8.941,53.61,53.61,0,0,0,11.083,15.279c.7.676,1.42,1.334,2.155,1.966.453.391.913.771,1.379,1.145q.5.4,1.013.783s0,0,0,0c.189.146.38.287.573.428.091.068.184.134.275.2.241.171.482.339.726.5l.232.157.485.314.1.064c-.014.093-.03.187-.046.282h.1l.132,0,.027.039c.023-.014.043-.025.064-.039h0l.048,0,.025-.043h0l.011-.021-.248-.148-.057-.036c.007-.164.018-.407.036-.724a.014.014,0,0,0,0-.009c.228-1.561.378-3.043.46-4.456v-.009a41.053,41.053,0,0,0,.039-4.215Z" transform="translate(-254.329 -357.727)" fill="#2f3d57"/>
      <path id="Path_42404" data-name="Path 42404" d="M759.934,1178.308a.961.961,0,0,1-.114-.007c.073.057.143.111.216.164q-.055-.079-.1-.157" transform="translate(-720.285 -1116.991)" fill="#2f3d57"/>
      <path id="Path_42405" data-name="Path 42405" d="M36.814,73.626A36.814,36.814,0,1,1,73.628,36.812,36.856,36.856,0,0,1,36.814,73.626m0-69.076A32.263,32.263,0,1,0,69.076,36.812,32.3,32.3,0,0,0,36.814,4.549" transform="translate(0 0.002)" fill="#2f3d57"/>
    </g>
  </g>
</svg>
