<svg xmlns="http://www.w3.org/2000/svg" width="26.229" height="22.667" viewBox="0 0 26.229 33.382">
  <g id="location-filled" transform="translate(-7.5 -3)">
    <path id="Path_1909" data-name="Path 1909" d="M20.614,3A13.13,13.13,0,0,0,7.5,16.114a12.982,12.982,0,0,0,2.642,7.869s.358.471.416.539l10.056,11.86L30.675,24.516c.052-.063.411-.533.411-.533v0a12.977,12.977,0,0,0,2.641-7.865A13.13,13.13,0,0,0,20.614,3Zm0,17.883a4.769,4.769,0,1,1,4.769-4.769,4.769,4.769,0,0,1-4.769,4.769Z" transform="translate(0 0)" fill="#fff"/>
    <circle id="IconifyId-17e9079768a-d1151c-107" cx="4.769" cy="4.769" r="4.769" transform="translate(15.845 11.345)" fill="none"/>
  </g>
</svg>
