<svg xmlns="http://www.w3.org/2000/svg" width="26.229" height="22.667" viewBox="0 0 29.275 22.667">
  <g id="mail" transform="translate(-5.52 -9.691)">
    <g id="Group_1112" data-name="Group 1112" transform="translate(5.52 9.691)">
      <path id="Path_1905" data-name="Path 1905" d="M33.823,9.691H6.492a.973.973,0,0,0-.972.972v1.956a.329.329,0,0,0,.178.235L20.063,21.06a.245.245,0,0,0,.244,0l13.932-8.2c.078-.044.286-.159.364-.213.094-.064.192-.122.192-.238V10.662a.973.973,0,0,0-.972-.972Z" transform="translate(-5.52 -9.691)" fill="#fff"/>
      <path id="Path_1906" data-name="Path 1906" d="M40.161,17.1a.245.245,0,0,0-.245,0l-7.884,4.639a.242.242,0,0,0-.055.374l7.885,8.5a.24.24,0,0,0,.178.078.243.243,0,0,0,.243-.243V17.313a.243.243,0,0,0-.121-.211Z" transform="translate(-11.008 -11.225)" fill="#fff"/>
      <path id="Path_1907" data-name="Path 1907" d="M24.368,24.914a.242.242,0,0,0-.3-.045l-3.16,1.86a1.233,1.233,0,0,1-1.22.008l-2.781-1.589a.243.243,0,0,0-.286.033L6.06,34.977a.243.243,0,0,0,.043.388.94.94,0,0,0,.484.143H33.639a.243.243,0,0,0,.178-.408Z" transform="translate(-5.616 -12.84)" fill="#fff"/>
      <path id="Path_1908" data-name="Path 1908" d="M14.2,22.457a.243.243,0,0,0-.044-.389L5.882,17.342a.243.243,0,0,0-.362.211v12.4a.242.242,0,0,0,.408.178Z" transform="translate(-5.52 -11.275)" fill="#fff"/>
    </g>
  </g>
</svg>
