<svg xmlns="http://www.w3.org/2000/svg" xmlns:xlink="http://www.w3.org/1999/xlink" width="73.628" height="74.306" viewBox="0 0 73.628 74.306">
  <defs>
    <clipPath id="clip-path">
      <rect id="Rectangle_822" data-name="Rectangle 822" width="73.628" height="74.306" fill="#2f3d57"/>
    </clipPath>
  </defs>
  <g id="Group_1236" data-name="Group 1236" transform="translate(0 0)">
    <g id="Group_1235" data-name="Group 1235" transform="translate(0 0)" clip-path="url(#clip-path)">
      <path id="Path_42383" data-name="Path 42383" d="M221.252,876.33c-.084,2.82-.091,5.128-.082,6.582l-10.728,10.826-3.22-3.25Z" transform="translate(-196.44 -830.312)" fill="#2f3d57"/>
      <path id="Path_42384" data-name="Path 42384" d="M911.419,210.461l-15.329,15.47c-.262-1.881-.573-3.746-.942-5.549L908.2,207.211Z" transform="translate(-848.571 -196.33)" fill="#2f3d57"/>
      <path id="Path_42385" data-name="Path 42385" d="M36.814,74.3A37.155,37.155,0,0,1,36.814,0a37.155,37.155,0,0,1,0,74.306m0-69.713a32.561,32.561,0,0,0,0,65.12,32.561,32.561,0,0,0,0-65.12" transform="translate(0 0.002)" fill="#2f3d57"/>
      <path id="Path_42386" data-name="Path 42386" d="M557.178,339.953a8.424,8.424,0,0,0-1.861.955,4.852,4.852,0,0,1-3.036.974,4.694,4.694,0,0,1-1.909-.344,7.519,7.519,0,0,1-1.126-.629,7.466,7.466,0,0,0-8.486,0c-.287.181-.555.351-.837.494a64.863,64.863,0,0,1,3.254-14.878c.139.014.278.021.419.021h10.163c.118,0,.237,0,.353-.016a50.583,50.583,0,0,1,2.353,8.861c.275,1.493.512,3.022.714,4.563" transform="translate(-511.829 -309.377)" fill="#2f3d57"/>
      <path id="Path_42387" data-name="Path 42387" d="M538.6,640.679V649.6a1.611,1.611,0,0,1-1.6,1.619H520.635a1.611,1.611,0,0,1-1.6-1.619v-8.925s-.036-1.479-.018-3.9c.016-1.784.061-4.081.173-6.674.118-2.767.314-5.873.633-9.051a7.76,7.76,0,0,0,2.321-1.1,5.222,5.222,0,0,1,6.074,0c.2.129.414.262.639.39a6.712,6.712,0,0,0,3.6.932,7.3,7.3,0,0,0,2.226-.315,8.3,8.3,0,0,0,2.016-1.008,8.623,8.623,0,0,1,.944-.547,178.237,178.237,0,0,1,.96,21.265" transform="translate(-492.002 -586.483)" fill="#2f3d57"/>
      <path id="Path_42388" data-name="Path 42388" d="M583.44,270.323a1.808,1.808,0,0,0,1.409.675h10.163a1.808,1.808,0,0,0,1.409-.675Z" transform="translate(-553.082 -256.128)" fill="#2f3d57"/>
      <path id="Path_42389" data-name="Path 42389" d="M589.328,183.987v1.631a1.838,1.838,0,0,1-.412,1.162,1.808,1.808,0,0,1-1.409.675H577.344a1.808,1.808,0,0,1-1.409-.675,1.838,1.838,0,0,1-.412-1.162v-1.631a1.829,1.829,0,0,1,1.82-1.837h10.163a1.829,1.829,0,0,1,1.821,1.837" transform="translate(-545.578 -172.585)" fill="#2f3d57"/>
    </g>
  </g>
</svg>
