<svg id="phone" xmlns="http://www.w3.org/2000/svg" width="26.229" height="22.667" viewBox="0 0 30.614 30.614">
  <path id="Path_1910" data-name="Path 1910" d="M30.189,25.457l-4.316,4.282a3.123,3.123,0,0,1-2.3.876c-3.637-.109-7.075-1.9-9.9-3.73a38.187,38.187,0,0,1-11.553-12.6C1.094,12.164-.107,9.462.008,7.1A3.142,3.142,0,0,1,.884,4.762L5.2.448A1.428,1.428,0,0,1,7.537.837l3.472,6.585A1.911,1.911,0,0,1,10.62,9.6l-1.59,1.589a.781.781,0,0,0-.162.454,13.556,13.556,0,0,0,4.089,6.033c1.632,1.5,3.386,3.526,5.663,4.006a.9.9,0,0,0,.828-.081l1.85-1.881a2.112,2.112,0,0,1,2.239-.324h.032l6.263,3.7a1.507,1.507,0,0,1,.357,2.368Z" transform="translate(0 0)" fill="#fff"/>
</svg>
