<svg xmlns="http://www.w3.org/2000/svg" width="91.08" height="64.041" viewBox="0 0 91.08 64.041">
  <path id="Icon_awesome-youtube" data-name="Icon awesome-youtube" d="M90.227,14.52a11.444,11.444,0,0,0-8.052-8.1C75.072,4.5,46.59,4.5,46.59,4.5s-28.481,0-35.584,1.916a11.445,11.445,0,0,0-8.052,8.1c-1.9,7.149-1.9,22.065-1.9,22.065s0,14.916,1.9,22.065a11.274,11.274,0,0,0,8.052,7.975c7.1,1.916,35.584,1.916,35.584,1.916s28.481,0,35.584-1.916a11.274,11.274,0,0,0,8.052-7.975c1.9-7.149,1.9-22.065,1.9-22.065s0-14.916-1.9-22.065ZM37.275,50.127V23.043l23.8,13.543-23.8,13.542Z" transform="translate(-1.05 -4.5)" fill="#fefcf8"/>
</svg>
